<svg xmlns="http://www.w3.org/2000/svg" width="320" height="320" viewBox="0 0 320 320" version="1.1"><path d="M 20 80 L 20 160 30 160 L 40 160 40 180 L 40 200 50 200 L 60 200 60 210 L 60 220 70 220 L 80 220 80 240 L 80 260 90 260 L 100 260 100 270 L 100 280 110 280 L 120 280 120 300 L 120 320 210 320 L 300 320 300 310 L 300 300 310 300 L 320 300 320 290 L 320 280 310 280 L 300 280 300 270 L 300 260 270 260 L 240 260 240 210 L 240 160 270 160 L 300 160 300 150 L 300 140 310 140 L 320 140 320 130 L 320 120 310 120 L 300 120 300 110 L 300 100 240 100 L 180 100 180 80 L 180 60 190 60 L 200 60 200 40 L 200 20 190 20 L 180 20 180 10 L 180 0 150 0 L 120 0 120 50 L 120 100 110 100 L 100 100 100 110 L 100 120 90 120 L 80 120 80 70 L 80 20 70 20 L 60 20 60 10 L 60 0 40 0 L 20 0 20 80 M 40 80 L 40 140 50 140 L 60 140 60 170 L 60 200 70 200 L 80 200 80 210 L 80 220 90 220 L 100 220 100 230 L 100 240 110 240 L 120 240 120 220 L 120 200 130 200 L 140 200 140 170 L 140 140 150 140 L 160 140 160 100 L 160 60 170 60 L 180 60 180 40 L 180 20 160 20 L 140 20 140 70 L 140 120 130 120 L 120 120 120 150 L 120 180 110 180 L 100 180 100 170 L 100 160 90 160 L 80 160 80 140 L 80 120 70 120 L 60 120 60 70 L 60 20 50 20 L 40 20 40 80 M 180 130 L 180 140 190 140 L 200 140 200 210 L 200 280 170 280 L 140 280 140 290 L 140 300 220 300 L 300 300 300 290 L 300 280 260 280 L 220 280 220 210 L 220 140 260 140 L 300 140 300 130 L 300 120 240 120 L 180 120 180 130 M 160 190 L 160 220 150 220 L 140 220 140 240 L 140 260 160 260 L 180 260 180 210 L 180 160 170 160 L 160 160 160 190" stroke="none" fill="#000000" fill-rule="evenodd"/><path d="M 40 90 L 40 140 50 140 L 60 140 60 150 L 60 160 70 160 L 80 160 80 140 L 80 120 70 120 L 60 120 60 80 L 60 40 50 40 L 40 40 40 90 M 140 80 L 140 120 130 120 L 120 120 120 140 L 120 160 130 160 L 140 160 140 150 L 140 140 150 140 L 160 140 160 90 L 160 40 150 40 L 140 40 140 80 M 240 130 L 240 140 260 140 L 280 140 280 130 L 280 120 260 120 L 240 120 240 130 M 200 200 L 200 240 210 240 L 220 240 220 200 L 220 160 210 160 L 200 160 200 200 M 240 290 L 240 300 260 300 L 280 300 280 290 L 280 280 260 280 L 240 280 240 290" stroke="none" fill="#c50100" fill-rule="evenodd"/><path d="M 160 50 L 160 60 170 60 L 180 60 180 50 L 180 40 170 40 L 160 40 160 50 M 60 170 L 60 180 80 180 L 100 180 100 170 L 100 160 80 160 L 60 160 60 170 M 120 170 L 120 180 130 180 L 140 180 140 170 L 140 160 130 160 L 120 160 120 170" stroke="none" fill="#a71a0d" fill-rule="evenodd"/><path d="M 220 130 L 220 140 210 140 L 200 140 200 150 L 200 160 210 160 L 220 160 220 150 L 220 140 230 140 L 240 140 240 130 L 240 120 230 120 L 220 120 220 130 M 60 190 L 60 200 100 200 L 140 200 140 190 L 140 180 100 180 L 60 180 60 190 M 200 250 L 200 260 210 260 L 220 260 220 250 L 220 240 210 240 L 200 240 200 250 M 220 290 L 220 300 230 300 L 240 300 240 290 L 240 280 230 280 L 220 280 220 290" stroke="none" fill="#901c18" fill-rule="evenodd"/><path d="M 180 130 L 180 140 200 140 L 220 140 220 130 L 220 120 200 120 L 180 120 180 130 M 80 210 L 80 220 100 220 L 120 220 120 210 L 120 200 100 200 L 80 200 80 210 M 200 270 L 200 280 170 280 L 140 280 140 290 L 140 300 180 300 L 220 300 220 280 L 220 260 210 260 L 200 260 200 270" stroke="none" fill="#7e1519" fill-rule="evenodd"/><path d="M 100 230 L 100 240 110 240 L 120 240 120 230 L 120 220 110 220 L 100 220 100 230" stroke="none" fill="#5b0713" fill-rule="evenodd"/><path d="M 40 90 L 40 140 50 140 L 60 140 60 150 L 60 160 70 160 L 80 160 80 140 L 80 120 70 120 L 60 120 60 80 L 60 40 50 40 L 40 40 40 90 M 140 80 L 140 120 130 120 L 120 120 120 140 L 120 160 130 160 L 140 160 140 150 L 140 140 150 140 L 160 140 160 90 L 160 40 150 40 L 140 40 140 80 M 240 130 L 240 140 260 140 L 280 140 280 130 L 280 120 260 120 L 240 120 240 130 M 200 200 L 200 240 210 240 L 220 240 220 200 L 220 160 210 160 L 200 160 200 200 M 240 290 L 240 300 260 300 L 280 300 280 290 L 280 280 260 280 L 240 280 240 290" stroke="none" fill="#c50100" fill-rule="evenodd"/><path d="M 220 130 L 220 140 210 140 L 200 140 200 150 L 200 160 210 160 L 220 160 220 150 L 220 140 230 140 L 240 140 240 130 L 240 120 230 120 L 220 120 220 130 M 60 190 L 60 200 100 200 L 140 200 140 190 L 140 180 100 180 L 60 180 60 190 M 200 250 L 200 260 210 260 L 220 260 220 250 L 220 240 210 240 L 200 240 200 250 M 220 290 L 220 300 230 300 L 240 300 240 290 L 240 280 230 280 L 220 280 220 290" stroke="none" fill="#901c18" fill-rule="evenodd"/><path d="M 180 130 L 180 140 200 140 L 220 140 220 130 L 220 120 200 120 L 180 120 180 130 M 80 210 L 80 220 100 220 L 120 220 120 210 L 120 200 100 200 L 80 200 80 210 M 200 270 L 200 280 170 280 L 140 280 140 290 L 140 300 180 300 L 220 300 220 280 L 220 260 210 260 L 200 260 200 270" stroke="none" fill="#7e1519" fill-rule="evenodd"/><path d="M 40 30 L 40 40 50 40 L 60 40 60 30 L 60 20 50 20 L 40 20 40 30 M 140 30 L 140 40 160 40 L 180 40 180 30 L 180 20 160 20 L 140 20 140 30 M 280 130 L 280 140 290 140 L 300 140 300 130 L 300 120 290 120 L 280 120 280 130 M 280 290 L 280 300 290 300 L 300 300 300 290 L 300 280 290 280 L 280 280 280 290" stroke="none" fill="#f24135" fill-rule="evenodd"/><path d="M 40 90 L 40 140 50 140 L 60 140 60 150 L 60 160 70 160 L 80 160 80 140 L 80 120 70 120 L 60 120 60 80 L 60 40 50 40 L 40 40 40 90 M 140 80 L 140 120 130 120 L 120 120 120 140 L 120 160 130 160 L 140 160 140 150 L 140 140 150 140 L 160 140 160 90 L 160 40 150 40 L 140 40 140 80 M 240 130 L 240 140 260 140 L 280 140 280 130 L 280 120 260 120 L 240 120 240 130 M 200 200 L 200 240 210 240 L 220 240 220 200 L 220 160 210 160 L 200 160 200 200 M 240 290 L 240 300 260 300 L 280 300 280 290 L 280 280 260 280 L 240 280 240 290" stroke="none" fill="#c50100" fill-rule="evenodd"/><path d="M 220 130 L 220 140 210 140 L 200 140 200 150 L 200 160 210 160 L 220 160 220 150 L 220 140 230 140 L 240 140 240 130 L 240 120 230 120 L 220 120 220 130 M 60 190 L 60 200 100 200 L 140 200 140 190 L 140 180 100 180 L 60 180 60 190 M 200 250 L 200 260 210 260 L 220 260 220 250 L 220 240 210 240 L 200 240 200 250 M 220 290 L 220 300 230 300 L 240 300 240 290 L 240 280 230 280 L 220 280 220 290" stroke="none" fill="#901c18" fill-rule="evenodd"/><path d="M 40 90 L 40 140 50 140 L 60 140 60 150 L 60 160 70 160 L 80 160 80 140 L 80 120 70 120 L 60 120 60 80 L 60 40 50 40 L 40 40 40 90 M 140 80 L 140 120 130 120 L 120 120 120 140 L 120 160 130 160 L 140 160 140 150 L 140 140 150 140 L 160 140 160 90 L 160 40 150 40 L 140 40 140 80 M 240 130 L 240 140 260 140 L 280 140 280 130 L 280 120 260 120 L 240 120 240 130 M 200 200 L 200 240 210 240 L 220 240 220 200 L 220 160 210 160 L 200 160 200 200 M 240 290 L 240 300 260 300 L 280 300 280 290 L 280 280 260 280 L 240 280 240 290" stroke="none" fill="#c50100" fill-rule="evenodd"/><path d="M 40 30 L 40 40 50 40 L 60 40 60 30 L 60 20 50 20 L 40 20 40 30 M 140 30 L 140 40 160 40 L 180 40 180 30 L 180 20 160 20 L 140 20 140 30 M 280 130 L 280 140 290 140 L 300 140 300 130 L 300 120 290 120 L 280 120 280 130 M 280 290 L 280 300 290 300 L 300 300 300 290 L 300 280 290 280 L 280 280 280 290" stroke="none" fill="#f24135" fill-rule="evenodd"/><path d="M 40 90 L 40 140 50 140 L 60 140 60 150 L 60 160 70 160 L 80 160 80 140 L 80 120 70 120 L 60 120 60 80 L 60 40 50 40 L 40 40 40 90 M 140 80 L 140 120 130 120 L 120 120 120 140 L 120 160 130 160 L 140 160 140 150 L 140 140 150 140 L 160 140 160 90 L 160 40 150 40 L 140 40 140 80 M 240 130 L 240 140 260 140 L 280 140 280 130 L 280 120 260 120 L 240 120 240 130 M 200 200 L 200 240 210 240 L 220 240 220 200 L 220 160 210 160 L 200 160 200 200 M 240 290 L 240 300 260 300 L 280 300 280 290 L 280 280 260 280 L 240 280 240 290" stroke="none" fill="#c50100" fill-rule="evenodd"/><path d="M 220 130 L 220 140 210 140 L 200 140 200 150 L 200 160 210 160 L 220 160 220 150 L 220 140 230 140 L 240 140 240 130 L 240 120 230 120 L 220 120 220 130 M 60 190 L 60 200 100 200 L 140 200 140 190 L 140 180 100 180 L 60 180 60 190 M 200 250 L 200 260 210 260 L 220 260 220 250 L 220 240 210 240 L 200 240 200 250 M 220 290 L 220 300 230 300 L 240 300 240 290 L 240 280 230 280 L 220 280 220 290" stroke="none" fill="#901c18" fill-rule="evenodd"/><path d="M 180 130 L 180 140 200 140 L 220 140 220 130 L 220 120 200 120 L 180 120 180 130 M 80 210 L 80 220 100 220 L 120 220 120 210 L 120 200 100 200 L 80 200 80 210 M 200 270 L 200 280 170 280 L 140 280 140 290 L 140 300 180 300 L 220 300 220 280 L 220 260 210 260 L 200 260 200 270" stroke="none" fill="#7e1519" fill-rule="evenodd"/><path d="M 40 30 L 40 40 50 40 L 60 40 60 30 L 60 20 50 20 L 40 20 40 30 M 140 30 L 140 40 160 40 L 180 40 180 30 L 180 20 160 20 L 140 20 140 30 M 280 130 L 280 140 290 140 L 300 140 300 130 L 300 120 290 120 L 280 120 280 130 M 280 290 L 280 300 290 300 L 300 300 300 290 L 300 280 290 280 L 280 280 280 290" stroke="none" fill="#f24135" fill-rule="evenodd"/><path d="M 20 80 L 20 160 30 160 L 40 160 40 180 L 40 200 50 200 L 60 200 60 210 L 60 220 70 220 L 80 220 80 240 L 80 260 90 260 L 100 260 100 270 L 100 280 110 280 L 120 280 120 300 L 120 320 210 320 L 300 320 300 310 L 300 300 310 300 L 320 300 320 290 L 320 280 310 280 L 300 280 300 270 L 300 260 270 260 L 240 260 240 210 L 240 160 270 160 L 300 160 300 150 L 300 140 310 140 L 320 140 320 130 L 320 120 310 120 L 300 120 300 110 L 300 100 240 100 L 180 100 180 80 L 180 60 190 60 L 200 60 200 40 L 200 20 190 20 L 180 20 180 10 L 180 0 150 0 L 120 0 120 50 L 120 100 110 100 L 100 100 100 110 L 100 120 90 120 L 80 120 80 70 L 80 20 70 20 L 60 20 60 10 L 60 0 40 0 L 20 0 20 80 M 40 80 L 40 140 50 140 L 60 140 60 170 L 60 200 70 200 L 80 200 80 210 L 80 220 90 220 L 100 220 100 230 L 100 240 110 240 L 120 240 120 220 L 120 200 130 200 L 140 200 140 170 L 140 140 150 140 L 160 140 160 100 L 160 60 170 60 L 180 60 180 40 L 180 20 160 20 L 140 20 140 70 L 140 120 130 120 L 120 120 120 150 L 120 180 110 180 L 100 180 100 170 L 100 160 90 160 L 80 160 80 140 L 80 120 70 120 L 60 120 60 70 L 60 20 50 20 L 40 20 40 80 M 180 130 L 180 140 190 140 L 200 140 200 210 L 200 280 170 280 L 140 280 140 290 L 140 300 220 300 L 300 300 300 290 L 300 280 260 280 L 220 280 220 210 L 220 140 260 140 L 300 140 300 130 L 300 120 240 120 L 180 120 180 130 M 160 190 L 160 220 150 220 L 140 220 140 240 L 140 260 160 260 L 180 260 180 210 L 180 160 170 160 L 160 160 160 190" stroke="none" fill="#000000" fill-rule="evenodd"/><path d="" stroke="none" fill="#bd130f" fill-rule="evenodd"/><path d="" stroke="none" fill="#040404" fill-rule="evenodd"/></svg>